HIERARCHY
ROOT Hips
{
	OFFSET 0.000000 88.474243 0.000000
	CHANNELS 6 Xposition Yposition Zposition Zrotation Yrotation Xrotation 
	JOINT Hips_Spine
	{
		OFFSET 0.000000 0.000000 0.000000
		CHANNELS 3 Zrotation Yrotation Xrotation
		JOINT Spine
		{
			OFFSET 0.005100 8.711998 -0.691000
			CHANNELS 3 Zrotation Yrotation Xrotation
			JOINT Spine1
			{
				OFFSET -0.009200 8.660301 -1.275000
				CHANNELS 3 Zrotation Yrotation Xrotation
				JOINT Spine2
				{
					OFFSET 0.006300 9.852501 -1.857000
					CHANNELS 3 Zrotation Yrotation Xrotation
					JOINT Spine2_Neck
					{
						OFFSET 0.000000 0.000000 0.000000
						CHANNELS 3 Zrotation Yrotation Xrotation
						JOINT Neck
						{
							OFFSET 0.016300 11.420799 -0.263300
							CHANNELS 3 Zrotation Yrotation Xrotation
							End Site #name: Head
							{
								OFFSET -0.019200 9.262405 2.362500
							}
						}
					}
					JOINT Spine2_LeftShoulder
					{
						OFFSET 0.000000 0.000000 0.000000
						CHANNELS 3 Zrotation Yrotation Xrotation
						JOINT LeftShoulder
						{
							OFFSET 5.616900 6.732201 -0.345700
							CHANNELS 3 Zrotation Yrotation Xrotation
							JOINT LeftArm
							{
								OFFSET 10.664888 -0.183372 -2.440700
								CHANNELS 3 Zrotation Yrotation Xrotation
								JOINT LeftForeArm
								{
									OFFSET 27.459126 0.000000 0.000000
									CHANNELS 3 Zrotation Yrotation Xrotation
									End Site #name: LeftHand
									{
										OFFSET 21.306858 0.000000 0.000000
									}
								}
							}
						}
					}
					JOINT Spine2_RightShoulder
					{
						OFFSET 0.000000 0.000000 0.000000
						CHANNELS 3 Zrotation Yrotation Xrotation
						JOINT RightShoulder
						{
							OFFSET -5.580300 6.737503 -0.344400
							CHANNELS 3 Zrotation Yrotation Xrotation
							JOINT RightArm
							{
								OFFSET -10.679335 -0.188484 -2.383900
								CHANNELS 3 Zrotation Yrotation Xrotation
								JOINT RightForeArm
								{
									OFFSET -27.503529 0.000000 0.000000
									CHANNELS 3 Zrotation Yrotation Xrotation
									End Site #name: RightHand
									{
										OFFSET -21.306808 0.000000 0.000000
									}
								}
							}
						}
					}
				}
			}
		}
	}
	JOINT Hips_LeftUpLeg
	{
		OFFSET 0.000000 0.000000 0.000000
		CHANNELS 3 Zrotation Yrotation Xrotation
		JOINT LeftUpLeg
		{
			OFFSET 6.857700 -6.739601 0.312100
			CHANNELS 3 Zrotation Yrotation Xrotation
			JOINT LeftLeg
			{
				OFFSET -0.367590 -34.731552 -4.572400
				CHANNELS 3 Zrotation Yrotation Xrotation
				End Site #name: LeftFoot
				{
					OFFSET 0.367590 -34.656704 -6.067400
				}
			}
		}
	}
	JOINT Hips_RightUpLeg
	{
		OFFSET 0.000000 0.000000 0.000000
		CHANNELS 3 Zrotation Yrotation Xrotation
		JOINT RightUpLeg
		{
			OFFSET -6.876100 -6.733299 0.301000
			CHANNELS 3 Zrotation Yrotation Xrotation
			JOINT RightLeg
			{
				OFFSET 0.347353 -34.795158 -4.515900
				CHANNELS 3 Zrotation Yrotation Xrotation
				End Site #name: RightFoot
				{
					OFFSET -0.347353 -34.589367 -6.070300
				}
			}
		}
	}
}
MOTION
Frames: 10
Frame Time: 0.041667
0.055706 -0.045052 -0.063205 -8.510700 45.968594 -5.481497 -0.000000 -0.000000 0.000000 -3.388352 -1.969937 -0.968228 2.671163 -0.260872 3.565478 0.000000 0.000000 0.000000 3.602968 -0.646653 1.098623 -2.879269 -4.711461 -1.084567 1.678338 0.532633 2.158414 -8.926019 -5.427647 1.718597 -83.449577 8.191092 -5.283289 -0.853306 -9.506972 0.779527 1.994769 -0.347572 2.844789 15.156385 13.389395 4.273047 43.753901 17.161850 -21.783293 -174.882764 69.177195 -170.378313 0.000000 -0.000000 -0.000000 -1.173914 16.596204 -19.915195 -4.954042 -22.419713 5.891388 -0.000000 -0.000000 -0.000000 2.476226 -14.378464 -13.397713 -9.433360 -7.503969 15.730118 
-0.041870 -0.190864 -0.094540 -8.440295 41.167153 -3.611365 -0.000000 -0.000000 0.000000 -4.158234 -4.199447 -0.038649 3.987383 0.081262 3.409990 0.000000 0.000000 0.000000 3.568718 -0.606105 2.910421 -2.308502 -5.812716 -3.393462 2.591965 0.211127 1.948523 -7.231971 -7.767109 1.721895 -84.408308 -3.519601 -10.350841 -2.156331 -1.371020 0.882080 3.678886 -0.598809 3.118286 17.785511 14.068796 3.516053 47.708694 20.155793 -16.641051 -179.040130 64.930635 -174.685140 0.000000 -0.000000 -0.000000 0.207248 18.038847 -19.758196 -4.081321 -20.200042 4.696675 -0.000000 -0.000000 -0.000000 1.965357 -11.313768 -12.657821 -5.479130 -3.942774 14.886095 
-0.009576 -0.238024 -0.115373 -9.713710 41.244143 -4.596249 0.000000 -0.000000 0.000000 -2.213893 -6.316416 0.005809 4.638987 -0.057592 3.717834 0.000000 0.000000 0.000000 4.299930 -0.980086 3.486589 -2.305107 -8.298365 -3.578190 2.852930 0.168215 2.137947 -6.696138 -6.111481 0.891095 -84.898771 -5.898874 -14.326610 -1.986595 6.704296 0.620689 4.248408 -0.678493 3.367248 20.341500 15.700098 4.223109 48.396713 19.703131 -14.430705 -179.840103 62.055500 -175.032147 0.000000 -0.000000 -0.000000 1.542926 19.532906 -19.062982 -3.878035 -18.577047 6.321871 -0.000000 0.000000 -0.000000 2.232329 -14.058738 -10.822867 -2.272991 -1.066077 13.851709 
0.031391 -0.313849 -0.176169 -10.915647 41.100068 -6.351380 -0.000000 -0.000000 0.000000 -0.482039 -7.425788 0.209686 4.528020 -0.414549 3.884848 0.000000 0.000000 0.000000 4.331939 -1.205115 3.710903 -2.006444 -9.480298 -3.859046 2.818594 -0.255442 1.660882 -6.692809 -1.303773 -2.062050 -85.295131 -8.397323 -15.604877 -2.061227 12.248694 0.484199 4.254480 -1.130139 3.497635 20.091977 14.122005 3.981523 47.408453 20.905222 -18.606241 179.777050 56.521598 -175.280115 0.000000 -0.000000 -0.000000 2.272962 21.017058 -18.092585 -3.399821 -18.265951 7.230525 -0.000000 0.000000 -0.000000 2.719097 -18.246671 -9.563030 -1.186724 0.969280 13.101044 
0.055821 -0.388098 -0.260981 -11.560578 40.774099 -7.321874 -0.000000 -0.000000 0.000000 0.714686 -7.694858 0.539089 4.116905 -0.644649 3.875303 0.000000 0.000000 0.000000 4.017601 -1.302886 3.968434 -1.926575 -10.656466 -3.598093 2.552996 -0.653238 1.677927 -6.874846 1.229671 -3.366210 -85.469355 -10.848098 -15.788482 -2.065814 15.548810 0.488705 3.849033 -1.558500 3.530256 19.831104 11.005694 3.173202 47.468820 22.361748 -21.622689 179.521267 52.555410 -175.662853 0.000000 -0.000000 -0.000000 2.668714 21.791175 -17.668823 -3.286025 -18.233797 7.977964 -0.000000 0.000000 -0.000000 3.141581 -21.566132 -8.880596 -1.466876 2.070563 12.962137 
0.073939 -0.441924 -0.353139 -11.710852 40.215868 -7.315304 -0.000000 -0.000000 0.000000 1.415995 -7.589378 0.823453 3.345266 -0.790423 3.674887 0.000000 0.000000 0.000000 3.545545 -1.307301 4.153778 -2.076968 -11.335849 -3.035325 2.190243 -0.937656 1.872049 -6.856982 1.862266 -3.289572 -85.049241 -12.498641 -14.680950 -2.013538 16.427885 0.559594 3.246657 -1.815126 3.504515 19.950497 9.627545 2.719833 48.345491 22.744551 -22.055141 179.480313 51.222108 -175.828211 0.000000 -0.000000 -0.000000 2.799280 21.923367 -17.780298 -3.287962 -18.270599 8.290158 -0.000000 0.000000 -0.000000 3.539542 -24.012828 -8.896172 -2.179385 2.514735 13.418814 
0.089193 -0.482267 -0.445899 -11.579326 39.724480 -6.645317 -0.000000 -0.000000 0.000000 1.836675 -7.401268 0.785397 2.640070 -0.864601 3.443147 0.000000 0.000000 0.000000 3.058106 -1.246120 4.206337 -2.400381 -11.595269 -2.782579 1.824113 -1.055694 1.940390 -7.252119 2.300148 -2.814756 -84.565289 -13.012300 -13.286594 -1.973038 15.677020 0.653268 2.689995 -1.905956 3.385948 19.818291 10.187842 2.758292 49.485388 21.848004 -20.507520 179.557939 50.731592 -175.837140 0.000000 -0.000000 -0.000000 2.822740 21.616008 -18.100537 -3.313167 -18.574510 8.136217 -0.000000 0.000000 -0.000000 3.945885 -26.354379 -9.196153 -3.373580 2.410507 13.818290 
0.106948 -0.518283 -0.530733 -11.375791 39.415836 -5.810410 -0.000000 -0.000000 0.000000 2.078217 -7.142984 0.547206 2.172428 -0.876495 3.355481 0.000000 0.000000 0.000000 2.719323 -1.173851 4.191470 -2.846051 -11.688153 -2.793059 1.576774 -1.019553 1.920242 -7.529274 2.844114 -2.564303 -84.538612 -12.808452 -12.662370 -1.968245 14.460856 0.739294 2.299180 -1.882020 3.265503 19.280091 11.316882 3.190782 50.503942 20.793584 -18.291002 179.667324 50.566482 -175.774195 0.000000 -0.000000 -0.000000 2.801198 21.175606 -18.471209 -3.294358 -18.914965 7.871139 -0.000000 0.000000 -0.000000 4.351862 -28.491171 -9.635357 -4.573836 2.187704 14.107296 
0.130138 -0.552283 -0.606853 -11.201022 39.396176 -5.117743 -0.000000 -0.000000 0.000000 2.299932 -6.817756 0.127570 1.974252 -0.848875 3.352847 0.000000 0.000000 0.000000 2.553155 -1.108024 4.058130 -3.306818 -11.689623 -2.849044 1.445735 -0.943676 1.894655 -7.709784 3.351448 -2.489968 -84.894126 -12.288647 -12.671880 -1.980579 13.310541 0.788392 2.109683 -1.824532 3.181926 18.684973 12.189759 3.895089 51.114530 19.848872 -16.059622 179.807892 50.718876 -175.648988 0.000000 -0.000000 -0.000000 2.737484 20.786545 -18.757003 -3.254126 -19.214685 7.660710 -0.000000 0.000000 -0.000000 4.691903 -30.168754 -10.032078 -5.583574 1.841617 14.308979 
0.154339 -0.583978 -0.677886 -11.075766 39.362059 -4.656786 -0.000000 -0.000000 0.000000 2.530927 -6.515589 -0.266328 1.988731 -0.800729 3.396959 0.000000 0.000000 0.000000 2.542365 -1.066211 4.010348 -3.636403 -11.663583 -2.949755 1.422507 -0.878051 1.934086 -7.746249 3.799110 -2.580176 -85.467322 -11.690760 -12.990909 -1.991663 12.192533 0.806182 2.101244 -1.777118 3.174036 18.244216 12.869062 4.458468 51.468179 19.118917 -14.136095 179.901828 50.611588 -175.551003 0.000000 -0.000000 -0.000000 2.732818 20.501863 -18.866049 -3.204645 -19.407863 7.524564 -0.000000 0.000000 -0.000000 4.909515 -31.200673 -10.282963 -6.252194 1.504485 14.440561 
